<?xml version="1.0" standalone="yes"?>
<svg width="499" height="499">
<path style="fill:#000000; stroke:none;" d="M0 0L0 499L499 499L499 0L0 0z"/>
<path style="fill:#071e2e; stroke:none;" d="M194 122C188.774 121.575 182.765 124.479 180 129C165.634 129.983 148.751 150.446 140.2 161.004C111.754 196.126 101.791 244.47 114.291 288C117.493 299.151 122.761 319.427 133 326C133.625 330.894 137.315 334.253 140.389 337.996C148.395 347.746 163.678 366.896 177 368C179.873 373.062 188.267 377.043 194 377C201.335 386.97 225.655 387.808 237 389.282C278.522 394.675 322.035 376.128 350.789 346.8C358.502 338.933 373.759 323.512 374 312C378.185 308.932 380.735 302.047 380 297C385.602 293.162 386.687 280.425 387.769 274C391.213 253.569 390.553 233.034 385.151 213C383.565 207.115 382.267 197.605 377 194C377.149 187.232 371.822 176.561 366 173C365.413 168.418 362.069 165.504 359.301 161.911C352.232 152.734 338.059 134.54 326 133C321.465 125.585 303.601 117.448 295 118L295 116C288.595 115.352 282.419 112.472 276 111.438C256.623 108.318 237.247 108.119 218 112.425C211.116 113.965 198.149 115.938 194 122z"/>
<path style="fill:#407392; stroke:none;" d="M236 126L236 127L241 127L236 126z"/>
<path style="fill:#75c5f8; stroke:none;" d="M241 126.424C194.976 132.541 153.935 156.089 135.453 201C118.466 242.278 123.895 301.019 158.17 332.741C174.064 347.452 194.983 356.521 216 360.46C227.189 362.557 238.54 364.187 250 362.816C306.358 356.072 353.307 313.982 361.701 257C372.085 186.507 315.732 116.492 241 126.424z"/>
<path style="fill:#3d708f; stroke:none;" d="M258 126L258 127L261 127L258 126z"/>
<path style="fill:#5c9ec9; stroke:none;" d="M229 127L229 128L233 128L229 127z"/>
<path style="fill:#274e67; stroke:none;" d="M268 127L268 128L273 128L268 127z"/>
<path style="fill:#4787b0; stroke:none;" d="M222 128L222 129L225 129L222 128z"/>
<path style="fill:#4784a6; stroke:none;" d="M274 128L274 129L277 129L274 128z"/>
<path style="fill:#386383; stroke:none;" d="M278.667 129.333L279.333 129.667L278.667 129.333z"/>
<path style="fill:#3e6b89; stroke:none;" d="M211 131L211 132L214 132L211 131z"/>
<path style="fill:#396e8f; stroke:none;" d="M285.667 131.333L286.333 131.667L285.667 131.333z"/>
<path style="fill:#45799b; stroke:none;" d="M192.667 139.333L193.333 139.667L192.667 139.333z"/>
<path style="fill:#00acec; stroke:none;" d="M335 161C337.952 167.445 343.313 172.759 346.833 179C355.525 194.41 362.174 213.196 362.961 231C366.179 303.853 303.739 368.079 230 362.91C212.486 361.683 194.204 355.409 179 346.833C172.759 343.313 167.445 337.952 161 335C167.852 344.721 178.833 351.572 189 357.421C234.518 383.604 294.351 375.741 333 340.83C368.841 308.455 380.271 258.545 367.485 213C362.27 194.421 351.132 172.371 335 161z"/>
<path style="fill:#457a9b; stroke:none;" d="M139.333 192.667L139.667 193.333L139.333 192.667z"/>
<path style="fill:#2d5670; stroke:none;" d="M183 205L183 206L187 206L183 205z"/>
<path style="fill:#071e2e; stroke:none;" d="M187 205.424C180.212 206.318 175.121 207.39 169 210.666C133.738 229.537 143.462 276.212 169.754 298.026C179.866 306.416 191.526 308.202 204 310.285C230.167 314.657 260.637 315.349 287 311.572C299.726 309.749 314.152 308.559 325 301.076C353.128 281.67 367.088 233.964 333 212.664C317.647 203.07 300.375 205 283 205C251.753 205 217.964 201.347 187 205.424z"/>
<path style="fill:#4b88a5; stroke:none;" d="M313.667 205.333L314.333 205.667L313.667 205.333z"/>
<path style="fill:#3c6a87; stroke:none;" d="M131 211L131 214L132 214L131 211z"/>
<path style="fill:#20516f; stroke:none;" d="M330.667 211.333L331.333 211.667L330.667 211.333z"/>
<path style="fill:#05617f; stroke:none;" d="M367 211L367 214L368 214L367 211z"/>
<path style="fill:#143e54; stroke:none;" d="M198 252C187.404 252.582 188.966 268.178 180.004 267.338C170.698 266.466 174.48 253.838 177.504 249.09C183.872 239.089 195.136 235.556 206 239C207.951 232.889 221.005 221.719 218.353 215.434C216.509 211.063 204.796 213 201 213C183.079 213 164.144 216.054 156.221 235C149.649 250.713 156.14 269.358 165.666 282.196C168.343 285.803 175.329 295.07 180.698 293.288C184.192 292.127 185.368 285.041 186.274 282C189.347 271.681 193.879 261.911 198 252z"/>
<path style="fill:#074e82; stroke:none;" d="M368.333 215.667L368.667 216.333L368.333 215.667z"/>
<path style="fill:#4787b0; stroke:none;" d="M128 222L128 225L129 225L128 222z"/>
<path style="fill:#03678e; stroke:none;" d="M371 226L371 233L372 233L371 226z"/>
<path style="fill:#2a526c; stroke:none;" d="M151.333 227.667L151.667 228.333L151.333 227.667z"/>
<path style="fill:#2a556c; stroke:none;" d="M347.333 227.667L347.667 228.333L347.333 227.667z"/>
<path style="fill:#5d9ec9; stroke:none;" d="M127 229L127 233L128 233L127 229z"/>
<path style="fill:#4680a3; stroke:none;" d="M147.333 235.667L147.667 236.333L147.333 235.667z"/>
<path style="fill:#477a9c; stroke:none;" d="M351 235L351 238L352 238L351 235z"/>
<path style="fill:#407392; stroke:none;" d="M126 236L126 241L127 241L126 236z"/>
<path style="fill:#046997; stroke:none;" d="M372 236L372 241L373 241L372 236z"/>
<path style="fill:#1d9a94; stroke:none;" d="M194 237L194 238L202 238L194 237z"/>
<path style="fill:#198b81; stroke:none;" d="M296 237L296 238L304 238L296 237z"/>
<path style="fill:#2dffdc; stroke:none;" d="M190 238.638C182.511 240.803 175.395 248.177 174.215 256C173.539 260.479 174.333 267.243 180.018 267.663C190.025 268.402 186.869 249.051 198.999 251.959C207.183 253.921 206.832 270.495 215.981 267.377C224.214 264.572 220.597 253.091 217.15 248.001C211.223 239.249 200.149 235.705 190 238.638z"/>
<path style="fill:#21a89a; stroke:none;" d="M293.667 238.333L294.333 238.667L293.667 238.333z"/>
<path style="fill:#2dffdc; stroke:none;" d="M295 238.529C286.45 240.506 280.439 247.642 278.669 256C277.715 260.505 278.029 267.357 284.039 267.793C294.54 268.555 290.762 249.202 302.996 251.761C311.799 253.602 310.548 269.892 319.945 267.547C327.658 265.623 324.76 253.718 321.853 249.001C316.109 239.681 305.443 236.115 295 238.529z"/>
<path style="fill:#396e8f; stroke:none;" d="M145 245L145 253L146 253L145 245z"/>
<path style="fill:#386e92; stroke:none;" d="M353 245L353 253L354 253L353 245z"/>
<path style="fill:#197f7a; stroke:none;" d="M195 251L195 252L199 252L195 251z"/>
<path style="fill:#1d7777; stroke:none;" d="M299 251L299 252L304 252L299 251z"/>
<path style="fill:#18978b; stroke:none;" d="M324 254L324 257L325 257L324 254z"/>
<path style="fill:#2aaca0; stroke:none;" d="M278.333 255.667L278.667 256.333L278.333 255.667z"/>
<path style="fill:#3d708f; stroke:none;" d="M126 258L126 261L127 261L126 258z"/>
<path style="fill:#4f8fb3; stroke:none;" d="M146.333 258.667L146.667 259.333L146.333 258.667z"/>
<path style="fill:#4a8db7; stroke:none;" d="M352.333 258.667L352.667 259.333L352.333 258.667z"/>
<path style="fill:#046993; stroke:none;" d="M372 258L372 261L373 261L372 258z"/>
<path style="fill:#228e8e; stroke:none;" d="M187 259L187 262L188 262L187 259z"/>
<path style="fill:#1f7d7c; stroke:none;" d="M311 259L311 262L312 262L311 259z"/>
<path style="fill:#386584; stroke:none;" d="M147 262L147 265L148 265L147 262z"/>
<path style="fill:#386582; stroke:none;" d="M351 262L351 265L352 265L351 262z"/>
<path style="fill:#1ea59c; stroke:none;" d="M174.333 263.667L174.667 264.333L174.333 263.667z"/>
<path style="fill:#178f86; stroke:none;" d="M324.333 263.667L324.667 264.333L324.333 263.667z"/>
<path style="fill:#27506a; stroke:none;" d="M127 268L127 273L128 273L127 268z"/>
<path style="fill:#064964; stroke:none;" d="M371 268L371 273L372 273L371 268z"/>
<path style="fill:#2b597d; stroke:none;" d="M128.333 275.667L128.667 276.333L128.333 275.667z"/>
<path style="fill:#376380; stroke:none;" d="M129.333 278.667L129.667 279.333L129.333 278.667z"/>
<path style="fill:#085984; stroke:none;" d="M369.333 278.667L369.667 279.333L369.333 278.667z"/>
<path style="fill:#2f5d7f; stroke:none;" d="M130.333 281.667L130.667 282.333L130.333 281.667z"/>
<path style="fill:#376c8e; stroke:none;" d="M131.333 285.667L131.667 286.333L131.333 285.667z"/>
<path style="fill:#03618b; stroke:none;" d="M367 285L367 288L368 288L367 285z"/>
<path style="fill:#335e78; stroke:none;" d="M135.333 296.667L135.667 297.333L135.333 296.667z"/>
<path style="fill:#32607c; stroke:none;" d="M179.667 304.333L180.333 304.667L179.667 304.333z"/>
<path style="fill:#508da7; stroke:none;" d="M318.667 304.333L319.333 304.667L318.667 304.333z"/>
<path style="fill:#4683ac; stroke:none;" d="M191 308L191 309L194 309L191 308z"/>
<path style="fill:#4a82aa; stroke:none;" d="M305 308L305 309L308 309L305 308z"/>
<path style="fill:#315e7b; stroke:none;" d="M297 309L297 310L300 310L297 309z"/>
<path style="fill:#467a92; stroke:none;" d="M203 310L203 311L206 311L203 310z"/>
<path style="fill:#41759a; stroke:none;" d="M293 310L293 311L296 311L293 310z"/>
<path style="fill:#4c8cbc; stroke:none;" d="M208.667 311.333L209.333 311.667L208.667 311.333z"/>
<path style="fill:#396a8f; stroke:none;" d="M287.667 311.333L288.333 311.667L287.667 311.333z"/>
<path style="fill:#4e89ac; stroke:none;" d="M215 312L215 313L221 313L215 312z"/>
<path style="fill:#264c64; stroke:none;" d="M221 312L221 313L228 313L221 312z"/>
<path style="fill:#356785; stroke:none;" d="M273 312L273 313L281 313L273 312z"/>
<path style="fill:#1e4059; stroke:none;" d="M234 313L234 314L258 314L234 313z"/>
<path style="fill:#3d7c9d; stroke:none;" d="M258 313L258 314L264 314L258 313z"/>
<path style="fill:#076281; stroke:none;" d="M211 367L211 368L214 368L211 367z"/>
<path style="fill:#01618a; stroke:none;" d="M285 367L285 368L288 368L285 367z"/>
<path style="fill:#0a5b86; stroke:none;" d="M278.667 369.333L279.333 369.667L278.667 369.333z"/>
<path style="fill:#04678e; stroke:none;" d="M226 371L226 372L233 372L226 371z"/>
<path style="fill:#074964; stroke:none;" d="M268 371L268 372L273 372L268 371z"/>
<path style="fill:#046997; stroke:none;" d="M236 372L236 373L241 373L236 372z"/>
<path style="fill:#066a8e; stroke:none;" d="M258 372L258 373L261 373L258 372z"/>
</svg>
