<svg height="512pt" viewBox="0 -16 512 512" width="512pt" xmlns="http://www.w3.org/2000/svg"><path d="m233.570312 393.984375c-8.285156 0-15-6.71875-15-15v-44.265625c0-8.285156 6.714844-15 15-15 8.285157 0 15 6.714844 15 15v44.265625c0 8.28125-6.714843 15-15 15zm0 0" fill="#b2e3fc"/><path d="m423.363281 393.984375c-8.28125 0-15-6.71875-15-15v-44.265625c0-8.285156 6.71875-15 15-15 8.285157 0 15 6.714844 15 15v44.265625c0 8.28125-6.714843 15-15 15zm0 0" fill="#67c1e5"/><path d="m423.363281 479.996094c-32.285156 0-58.550781-26.019532-58.550781-58.007813 0-31.984375 26.265625-58.007812 58.550781-58.007812 32.289063 0 58.554688 26.023437 58.554688 58.007812 0 31.988281-26.265625 58.007813-58.554688 58.007813zm0 0" fill="#183755"/><path d="m233.570312 479.996094c-32.285156 0-58.554687-26.019532-58.554687-58.007813 0-31.984375 26.269531-58.007812 58.554687-58.007812 32.285157 0 58.550782 26.023437 58.550782 58.007812 0 31.988281-26.265625 58.007813-58.550782 58.007813zm0 0" fill="#1b6ca6"/><path d="m512 148.589844v149.589844c0 28.421874-23.339844 51.539062-52.011719 51.539062h-271.949219c-22.9375 0-40.699218-16.328125-48.75-44.796875-.039062-.121094-.070312-.242187-.097656-.351563l-49.671875-193.300781v-.007812l-2.570312-10-11.648438-45.363281c-7.261719-24.097657-13.78125-25.898438-22.902343-25.898438h-37.398438c-8.289062 0-15-6.71875-15-15 0-8.289062 6.710938-15 15-15h37.398438c33.042968 0 44.679687 24.050781 51.722656 47.578125l13.808594 53.683594 2.570312 10v.007812l207.128906-.179687 146.421875-.128906h.027344c1.640625 0 3.261719.097656 4.863281.300781 8.25 1.046875 15.878906 4.726562 21.867188 10.636719 7.210937 7.121093 11.191406 16.589843 11.191406 26.691406zm0 0" fill="#ff6464"/><path d="m512 148.589844v149.589844c0 28.421874-23.339844 51.539062-52.011719 51.539062h-132.359375v-238.628906l146.421875-.128906h.027344c1.640625 0 3.261719.097656 4.863281.300781 8.25 1.046875 15.878906 4.726562 21.867188 10.636719 7.210937 7.121093 11.191406 16.589843 11.191406 26.691406zm0 0" fill="#f72828"/><path d="m120.5 111.261719h-30.980469l-2.570312-10-11.648438-45.363281c-7.261719-24.097657-13.78125-25.898438-22.902343-25.898438h-37.398438c-8.289062 0-15-6.71875-15-15 0-8.289062 6.710938-15 15-15h37.398438c33.042968 0 44.679687 24.050781 51.722656 47.578125l13.808594 53.683594zm0 0" fill="#b2e3fc"/></svg>