<svg height="512pt" viewBox="0 -13 512.00078 512" width="512pt" xmlns="http://www.w3.org/2000/svg"><path d="m496.882812 485.859375h-481.765624c-8.347657 0-15.117188-6.769531-15.117188-15.117187v-320.5c0-8.347657 6.769531-15.117188 15.117188-15.117188h481.765624c8.347657 0 15.117188 6.769531 15.117188 15.117188v320.5c0 8.347656-6.769531 15.117187-15.117188 15.117187zm0 0" fill="#96e8ff"/><path d="m496.882812 135.125h-240.882812v350.734375h240.882812c8.347657 0 15.117188-6.769531 15.117188-15.117187v-320.5c0-8.347657-6.769531-15.117188-15.117188-15.117188zm0 0" fill="#19cffc"/><path d="m496.882812 485.859375h-481.765624c-6.234376 0-11.828126-3.828125-14.089844-9.640625-2.257813-5.8125-.71875-12.414062 3.878906-16.625l175.539062-160.8125c2.785157-2.550781 6.429688-3.96875 10.210938-3.96875l130.683594-.003906c3.78125 0 7.425781 1.417968 10.210937 3.972656l175.542969 160.8125c4.597656 4.210938 6.136719 10.816406 3.878906 16.625-2.257812 5.8125-7.855468 9.640625-14.089844 9.640625zm0 0" fill="#b5efff"/><path d="m507.09375 459.59375-175.539062-160.8125c-2.789063-2.554688-6.433594-3.972656-10.214844-3.972656l-65.339844.003906v191.046875h240.882812c6.234376 0 11.828126-3.828125 14.089844-9.640625 2.257813-5.808594.71875-12.414062-3.878906-16.625zm0 0" fill="#76e2f8"/><path d="m256 384.621094c-3.644531 0-7.289062-1.3125-10.175781-3.9375l-240.882813-219.261719c-4.617187-4.203125-6.175781-10.8125-3.921875-16.636719 2.253907-5.824218 7.855469-9.660156 14.097657-9.660156h481.761718c6.246094 0 11.847656 3.839844 14.101563 9.660156 2.253906 5.824219.695312 12.433594-3.925781 16.636719l-240.878907 219.261719c-2.882812 2.625-6.53125 3.9375-10.175781 3.9375zm0 0" fill="#19cffc"/><path d="m496.882812 135.125h-240.882812v249.496094c3.648438 0 7.292969-1.3125 10.175781-3.9375l240.882813-219.261719c4.617187-4.203125 6.175781-10.8125 3.921875-16.636719-2.253907-5.824218-7.855469-9.660156-14.097657-9.660156zm0 0" fill="#4ab8f7"/><path d="m421.878906 46.425781c0-25.601562-20.824218-46.425781-46.421875-46.425781h-238.910156c-25.601563 0-46.425781 20.824219-46.425781 46.425781v192.53125l155.703125 141.726563c2.882812 2.625 6.53125 3.9375 10.175781 3.9375s7.292969-1.3125 10.175781-3.9375l155.703125-141.726563zm0 0" fill="#f2f6fc"/><path d="m266.175781 380.683594 155.703125-141.726563v-192.53125c0-25.601562-20.824218-46.425781-46.425781-46.425781h-119.449219v384.621094c3.644532 0 7.289063-1.3125 10.171875-3.9375zm0 0" fill="#e9edf5"/><path d="m307.84375 179.671875c-6.125 0-11.113281-4.984375-11.113281-11.113281 0-22.460938-18.273438-40.734375-40.734375-40.734375-22.460938 0-40.734375 18.273437-40.734375 40.734375 0 22.460937 18.273437 40.734375 40.734375 40.734375 9.839844 0 18.875-3.507813 25.925781-9.339844 7.046875 5.832031 16.082031 9.339844 25.921875 9.339844 22.464844 0 40.734375-18.273438 40.734375-40.734375 0-51.050782-41.53125-92.582032-92.582031-92.582032-51.050782 0-92.582032 41.53125-92.582032 92.582032 0 51.050781 41.53125 92.582031 92.582032 92.582031 17.703125 0 34.917968-5.015625 49.78125-14.511719 6.890625-4.402344 8.910156-13.558594 4.507812-20.453125-4.402344-6.890625-13.558594-8.910156-20.453125-4.507812-10.09375 6.445312-21.792969 9.851562-33.835937 9.851562-34.71875 0-62.964844-28.246093-62.964844-62.960937 0-34.71875 28.246094-62.960938 62.964844-62.960938s62.960937 28.242188 62.960937 62.960938c0 6.125-4.984375 11.113281-11.113281 11.113281zm-51.847656 0c-6.125 0-11.113282-4.984375-11.113282-11.113281s4.988282-11.113282 11.113282-11.113282c6.128906 0 11.117187 4.984376 11.117187 11.113282 0 6.125-4.988281 11.113281-11.117187 11.113281zm0 0" fill="#ff5e95"/><g fill="#ff3f5c"><path d="m305.777344 246.628906c6.894531-4.402344 8.910156-13.558594 4.507812-20.453125-4.402344-6.890625-13.558594-8.910156-20.453125-4.507812-10.089843 6.445312-21.792969 9.851562-33.835937 9.851562v29.621094c17.703125 0 34.917968-5.015625 49.78125-14.511719zm0 0"/><path d="m255.996094 75.972656v29.621094c34.71875 0 62.964844 28.246094 62.964844 62.964844 0 6.125-4.988282 11.113281-11.113282 11.113281-6.128906 0-11.113281-4.988281-11.113281-11.113281 0-22.464844-18.273437-40.738282-40.738281-40.738282v29.621094c6.128906 0 11.117187 4.988282 11.117187 11.117188 0 6.125-4.988281 11.113281-11.117187 11.113281v29.621094c9.84375 0 18.878906-3.511719 25.925781-9.339844 7.046875 5.828125 16.082031 9.339844 25.925781 9.339844 22.460938 0 40.734375-18.273438 40.734375-40.734375-.003906-51.050782-41.535156-92.585938-92.585937-92.585938zm0 0"/></g></svg>