<svg id="Capa_1" enable-background="new 0 0 512 512" height="512" viewBox="0 0 512 512" width="512" xmlns="http://www.w3.org/2000/svg"><g><path d="m467.151 130.051h-30.898c-35.006 0-69.829 3.886-103.838 11.54v36.118c0 2.141-1.142 4.12-2.997 5.19l-70.422 40.658c-.927.535-1.962.803-2.997.803v182.09c1.497 0 2.994-.278 4.413-.833l3.402-1.332c54.945-21.513 113.431-32.555 172.438-32.555h30.898c3.527 0 6.387-2.86 6.387-6.387v-228.905c.001-3.528-2.858-6.387-6.386-6.387z" fill="#dddaec"/><path d="m182.581 182.898c-1.854-1.071-2.996-3.049-2.996-5.19v-36.118c-34.009-7.653-68.832-11.54-103.838-11.54h-30.898c-3.527 0-6.387 2.859-6.387 6.387v228.904c0 3.528 2.86 6.387 6.387 6.387h30.898c59.007 0 117.493 11.042 172.438 32.555l3.402 1.332c1.419.555 2.916.833 4.413.833v-182.09c-1.035 0-2.069-.268-2.996-.803z" fill="#f1eaf9"/><path d="m251.589 405.617-3.403-1.333c-54.945-21.513-113.431-32.555-172.438-32.555h-30.899c-3.527 0-6.387-2.86-6.387-6.387v27c0 3.528 2.86 6.387 6.387 6.387h30.9c59.006 0 117.491 11.042 172.435 32.554l3.405 1.333c1.418.555 2.915.833 4.411.833v-27c-1.497.001-2.993-.277-4.411-.832z" fill="#f9f6f9"/><path d="m467.151 371.729h-30.9c-59.006 0-117.491 11.042-172.435 32.554l-3.405 1.333c-1.418.555-2.915.833-4.411.833v27c1.497 0 2.993-.278 4.411-.833l3.405-1.333c54.944-21.513 113.429-32.554 172.435-32.554h30.9c3.527 0 6.387-2.86 6.387-6.387v-27c0 3.528-2.859 6.387-6.387 6.387z" fill="#f1eaf9"/><path d="m248.184 431.284c-54.944-21.513-113.429-32.554-172.435-32.554h-30.9c-3.528 0-6.387-2.86-6.387-6.387v-254.155h-23.666c-4.03 0-7.296 3.267-7.296 7.296v270.023c0 4.03 3.267 7.296 7.296 7.296h35.295c67.405 0 134.215 12.613 196.98 37.188l2.854 1.117c1.953.765 4.014 1.147 6.075 1.147v-28.805c-1.497 0-2.993-.278-4.411-.833z" fill="#845c47"/><path d="m497.204 138.188h-23.665v254.155c0 3.527-2.86 6.387-6.387 6.387h-30.9c-59.006 0-117.491 11.042-172.435 32.554l-3.405 1.333c-1.418.555-2.915.833-4.411.833v28.805c2.061 0 4.122-.382 6.075-1.147l2.854-1.117c62.765-24.575 129.575-37.188 196.98-37.188h35.295c4.03 0 7.296-3.267 7.296-7.296v-270.023c-.001-4.03-3.268-7.296-7.297-7.296z" fill="#7a5440"/><path d="m159.73 272.999v68.926c0 1.017.732 1.881 1.735 2.053 19.171 3.279 38.141 7.666 56.859 13.151 1.339.392 2.676-.603 2.676-1.998v-68.437c0-.922-.604-1.74-1.486-2.008-18.882-5.743-38.004-10.328-57.325-13.752-1.282-.228-2.459.764-2.459 2.065z" fill="#95d6a4"/><path d="m134.73 239.364v-68.513c0-1.051-.779-1.944-1.821-2.08-18.871-2.476-37.947-3.72-57.162-3.72h-.194c-1.155 0-2.091.936-2.091 2.091v69.155c0 1.154.936 2.084 2.09 2.083 19.089-.013 38.055 1.006 56.865 3.055 1.236.135 2.313-.827 2.313-2.071z" fill="#e28086"/><path d="m132.875 266.648c-18.949-2.188-38.067-3.279-57.318-3.266-1.156.001-2.095.944-2.095 2.1v69.155c0 1.155.936 2.091 2.091 2.091h.194c19.021 0 37.925 1.052 56.663 3.145 1.238.138 2.32-.825 2.32-2.071v-69.069c0-1.063-.798-1.963-1.855-2.085z" fill="#ffd064"/><path d="m352.27 272.999v68.926c0 1.017-.732 1.881-1.735 2.053-19.171 3.279-38.141 7.666-56.859 13.151-1.339.392-2.676-.603-2.676-1.998v-68.437c0-.922.604-1.74 1.486-2.008 18.882-5.743 38.004-10.328 57.325-13.752 1.282-.228 2.459.764 2.459 2.065z" fill="#e28086"/><path d="m377.27 239.364v-68.513c0-1.051.779-1.944 1.821-2.08 18.871-2.476 37.947-3.72 57.162-3.72h.194c1.155 0 2.091.936 2.091 2.091v69.155c0 1.154-.936 2.084-2.09 2.083-19.089-.013-38.055 1.006-56.865 3.055-1.236.135-2.313-.827-2.313-2.071z" fill="#ffd064"/><path d="m379.125 266.648c18.949-2.188 38.067-3.279 57.318-3.266 1.156.001 2.095.944 2.095 2.1v69.155c0 1.155-.936 2.091-2.091 2.091h-.194c-19.021 0-37.925 1.052-56.663 3.145-1.238.138-2.32-.825-2.32-2.071v-69.069c0-1.063.798-1.963 1.855-2.085z" fill="#bed8fb"/><path d="m331.612 93.395c-.517-.896-1.266-1.658-2.194-2.194l-70.422-40.658c-1.854-1.071-4.139-1.071-5.993 0l-70.422 40.658c-.927.535-1.676 1.298-2.194 2.194l75.613 43.655z" fill="#ffe07d"/><path d="m256 137.05v87.309c1.035 0 2.069-.268 2.997-.803l70.422-40.658c1.854-1.071 2.997-3.049 2.997-5.19v-81.316c0-1.071-.286-2.1-.803-2.997z" fill="#ffc250"/><path d="m180.388 93.395c-.517.896-.803 1.926-.803 2.997v81.316c0 2.141 1.142 4.12 2.996 5.19l70.422 40.658c.927.535 1.962.803 2.996.803v-87.309z" fill="#ffd064"/><path d="m182.581 182.898c-1.854-1.071-2.996-3.049-2.996-5.19v-.196c-5.758-1.408-11.542-2.698-17.348-3.868-1.295-.261-2.507.737-2.507 2.058v67.682c0 1.02.737 1.886 1.743 2.054 19.148 3.196 38.114 7.476 56.864 12.835 1.336.382 2.663-.613 2.663-2.002v-51.192z" fill="#bed8fb"/><path d="m349.763 173.645c-5.806 1.17-11.59 2.46-17.348 3.868v.196c0 2.141-1.142 4.12-2.997 5.19l-38.418 22.18v51.192c0 1.389 1.327 2.384 2.663 2.002 18.75-5.359 37.716-9.638 56.864-12.835 1.006-.168 1.743-1.034 1.743-2.054v-67.682c0-1.321-1.212-2.318-2.507-2.057z" fill="#95d6a4"/><path d="m497.204 130.687h-17.414c-2.19-4.796-7.032-8.137-12.639-8.137h-30.898c-32.31 0-64.672 3.281-96.338 9.759v-35.918c0-4.862-2.61-9.297-6.746-11.685l-70.42-40.656c-4.161-2.406-9.333-2.408-13.496-.002l-70.421 40.657c-4.259 2.458-6.748 6.963-6.748 11.686v35.918c-31.666-6.478-64.028-9.759-96.338-9.759h-30.897c-5.607 0-10.449 3.341-12.64 8.137h-17.413c-8.159 0-14.796 6.638-14.796 14.797v270.022c0 8.158 6.637 14.796 14.796 14.796h35.295c111.19 0 192.547 36.469 197.1 37.789 5.507 2.156 11.797 2.28 17.619 0 4.582-1.328 83.915-37.789 197.1-37.789h35.295c8.158 0 14.796-6.638 14.796-14.796v-270.022c-.001-8.159-6.639-14.797-14.797-14.797zm-323.67 53.091c1.166 2.312 2.989 4.283 5.298 5.615l34.668 20.016v39.733c-15.247-4.132-30.764-7.595-46.27-10.325v-56.462c2.104.458 4.207.933 6.304 1.423zm51.316 14.863c-.068-.041-.137-.08-.206-.119l-37.559-21.685v-35.103c.002-.091.001-.182 0-.273v-35.539l61.415 35.458v70.916zm38.65-57.261 61.415-35.458v35.522c-.002.1-.002.2 0 .3v35.094l-37.542 21.675c-.083.046-.165.093-.246.142l-23.627 13.64zm35 68.029 34.669-20.016c2.308-1.333 4.13-3.304 5.297-5.615 2.097-.49 4.201-.965 6.304-1.423v56.462c-15.506 2.73-31.023 6.193-46.27 10.324zm-42.5-151.935 61.415 35.457-61.415 35.458-61.415-35.458zm7.5 354.988 3.049-1.194c54.299-21.259 111.396-32.038 169.704-32.038h29.785v12h-29.786c-59.324 0-117.429 10.809-172.752 32.132zm-15 10.899c-55.323-21.323-113.429-32.132-172.751-32.132h-29.788v-12h29.786c58.309 0 115.406 10.779 169.704 32.038l3.049 1.195zm-198.409-8.059h-35.091v-269.615h15.961v246.655c0 7.657 6.23 13.887 13.887 13.887h30.9c58.308 0 115.404 10.779 169.701 32.038l3.051 1.195v13.035c-63.507-24.68-130.256-37.195-198.409-37.195zm446.909 0h-35.091c-68.155 0-134.9 12.514-198.409 37.196v-13.036l3.051-1.195c54.297-21.259 111.393-32.038 169.701-32.038h30.899c7.657 0 13.887-6.229 13.887-13.887v-46.224c0-4.143-3.357-7.5-7.5-7.5s-7.5 3.357-7.5 7.5v18.11h-29.785c-59.322 0-117.428 10.809-172.753 32.131v-108.969c0-4.143-3.357-7.5-7.5-7.5-4.142 0-7.5 3.357-7.5 7.5v108.97c-55.322-21.32-113.432-32.131-172.753-32.131h-29.786v-226.679h29.786c32.325 0 64.704 3.39 96.338 10.08v20.433c-2.793-.62-5.588-1.212-8.368-1.773-5.927-1.193-11.487 3.343-11.487 9.411v67.682c0 4.702 3.368 8.678 8.008 9.452 18.798 3.138 37.652 7.394 56.037 12.647 2.863.82 6.013.248 8.413-1.562 2.386-1.8 3.811-4.66 3.811-7.65v-38.2l20 11.547v22.773c0 4.143 3.358 7.5 7.5 7.5 4.143 0 7.5-3.357 7.5-7.5v-22.774l20-11.547v38.202c0 2.99 1.425 5.851 3.811 7.65 2.377 1.791 5.523 2.391 8.413 1.562 18.385-5.254 37.238-9.509 56.037-12.647 4.641-.773 8.009-4.749 8.009-9.452v-67.682c0-6.062-5.552-10.605-11.489-9.41-2.778.56-5.573 1.152-8.365 1.772v-20.434c31.634-6.69 64.012-10.08 96.338-10.08h29.785v173.568c0 4.143 3.357 7.5 7.5 7.5s7.5-3.357 7.5-7.5v-165.431h15.962z"/><path d="m221.696 277.51c-19.074-5.801-38.655-10.499-58.202-13.963-5.876-1.038-11.264 3.488-11.264 9.452v68.926c0 4.681 3.35 8.653 7.97 9.445 18.814 3.218 37.661 7.577 56.018 12.957 2.848.833 6.011.297 8.447-1.528 2.401-1.8 3.834-4.667 3.834-7.669v-68.437c.001-4.259-2.736-7.949-6.803-9.183zm-8.196 70.444c-15.234-4.23-30.748-7.777-46.27-10.577v-57.889c15.533 2.971 31.051 6.734 46.27 11.226z"/><path d="m133.885 161.335c-19.172-2.515-38.668-3.783-58.332-3.783-5.289 0-9.591 4.303-9.591 9.591v19.866c0 4.143 3.358 7.5 7.5 7.5s7.5-3.357 7.5-7.5v-14.426c15.477.188 30.997 1.205 46.269 3.034v57.745c-15.293-1.485-30.808-2.31-46.269-2.457v-8.896c0-4.143-3.358-7.5-7.5-7.5s-7.5 3.357-7.5 7.5v14.289c0 5.306 4.295 9.583 9.586 9.583.15-.002.232 0 .35 0 18.614 0 37.356 1.013 55.707 3.011 2.791.299 5.475-.628 7.443-2.394 2.023-1.814 3.183-4.414 3.183-7.133v-68.513c-.001-4.802-3.588-8.892-8.346-9.517z"/><path d="m133.735 259.198c-19.158-2.213-38.727-3.308-58.185-3.315-5.287.005-9.589 4.311-9.589 9.6v69.155c0 5.289 4.303 9.592 9.591 9.592 18.552 0 37.28 1.003 56.023 3.098 2.674.301 5.405-.543 7.46-2.38 2.03-1.815 3.194-4.419 3.194-7.144v-69.069c.001-4.878-3.651-8.979-8.494-9.537zm-6.505 72.587c-15.298-1.525-30.813-2.373-46.269-2.529v-58.347c15.473.16 30.993 1.053 46.269 2.662z"/><path d="m348.503 263.548c-19.545 3.463-39.126 8.161-58.192 13.96-4.073 1.235-6.811 4.926-6.811 9.186v68.437c0 3.003 1.434 5.87 3.836 7.669 2.364 1.772 5.517 2.387 8.449 1.527 18.354-5.379 37.2-9.738 56.018-12.957 4.616-.791 7.967-4.764 7.967-9.444v-68.926c0-5.96-5.381-10.489-11.267-9.452zm-3.733 73.829c-15.522 2.8-31.038 6.347-46.27 10.577v-57.24c15.215-4.49 30.735-8.255 46.27-11.226z"/><path d="m436.447 157.551c-19.646 0-39.142 1.266-58.332 3.783-4.758.625-8.346 4.716-8.346 9.518v68.513c0 2.719 1.16 5.318 3.184 7.133 1.949 1.749 4.627 2.696 7.441 2.394 18.353-1.998 37.093-3.011 55.706-3.011.115 0 .216.007.35 0 2.556 0 4.959-.992 6.768-2.794 1.819-1.811 2.82-4.222 2.82-6.789v-69.155c0-5.289-4.303-9.592-9.591-9.592zm-5.409 73.354c-15.46.147-30.975.972-46.269 2.457v-57.745c15.272-1.829 30.792-2.847 46.269-3.034z"/><path d="m436.448 255.882c-20.348 0-39.701 1.18-58.184 3.315-4.843.56-8.495 4.659-8.495 9.536v69.069c0 2.725 1.164 5.328 3.194 7.143 2.033 1.819 4.757 2.685 7.459 2.381 18.48-2.065 37.201-3.098 56.024-3.098 5.288 0 9.591-4.303 9.591-9.592v-69.155c.001-5.288-4.301-9.594-9.589-9.599zm-5.41 73.373c-15.455.156-30.971 1.004-46.269 2.529v-58.214c15.276-1.609 30.795-2.502 46.269-2.662z"/><path d="m291.541 154.058 14.721-8.499c3.587-2.071 4.816-6.658 2.745-10.245-2.072-3.588-6.659-4.814-10.245-2.745l-14.721 8.499c-3.587 2.071-4.816 6.658-2.745 10.245 2.082 3.605 6.675 4.806 10.245 2.745z"/></g></svg>