<svg height="512pt" viewBox="0 -66 512 512" width="512pt" xmlns="http://www.w3.org/2000/svg"><path d="m497 333h-163c-8.285156 0-15-6.714844-15-15v-227c0-8.285156 6.71875-15 15-15h4.25c41.164062 0 76.859375 20.28125 97.933594 55.644531l29.410156 49.359375c25.644531.316406 46.40625 21.277344 46.40625 46.996094v90c0 8.285156-6.714844 15-15 15zm0 0" fill="#62e3f8"/><path d="m334 333.195312h-319c-8.285156 0-15-6.714843-15-15v-303.195312c0-8.285156 6.714844-15 15-15h319c8.285156 0 15 6.714844 15 15v303.195312c0 8.285157-6.714844 15-15 15zm0 0" fill="#ff5b5b"/><path d="m334 0h-159.53125v333.195312h159.53125c8.285156 0 15-6.714843 15-15v-303.195312c0-8.285156-6.714844-15-15-15zm0 0" fill="#ca0000"/><path d="m67.0625 141.597656h-.285156v-16.527344h.285156c8.285156 0 15-6.71875 15-15 0-8.285156-6.714844-15-15-15h-15.285156c-8.285156 0-15 6.714844-15 15v93.058594c0 8.28125 6.714844 15 15 15s15-6.71875 15-15v-31.53125h.289062c8.28125 0 15-6.714844 15-15 0-8.28125-6.71875-15-15.003906-15zm0 0" fill="#ffe046"/><path d="m284 188.128906h-.5v-16.53125h.285156c8.285156 0 15-6.714844 15-15s-6.714844-15-15-15h-.285156v-16.527344h.285156c8.28125 0 15-6.71875 15-15 0-8.285156-6.71875-15-15-15h-15.285156c-8.285156 0-15 6.714844-15 15v93.058594c0 8.28125 6.714844 15 15 15h15.5c8.285156 0 15-6.71875 15-15 0-8.285156-6.714844-15-15-15zm0 0" fill="#fdbf00"/><path d="m215.390625 188.128906h-.5v-16.53125h.285156c8.285157 0 15-6.714844 15-15s-6.714843-15-15-15h-.285156v-16.527344h.285156c8.28125 0 15-6.71875 15-15 0-8.285156-6.71875-15-15-15h-15.285156c-8.285156 0-15 6.714844-15 15v93.058594c0 8.28125 6.714844 15 15 15h15.5c8.285156 0 15-6.71875 15-15 0-8.285156-6.714844-15-15-15zm0 0" fill="#fdbf00"/><path d="m129.695312 95.125h-17.847656c-.378906-.027344-.761718-.058594-1.152344-.058594-8.28125 0-15 6.71875-15 15v93.058594c0 8.285156 6.71875 15 15 15 8.285157 0 15-6.714844 15-15v-5.78125l16.390626 16.390625c2.929687 2.929687 6.769531 4.394531 10.605468 4.394531 3.839844 0 7.679688-1.464844 10.609375-4.394531 5.855469-5.855469 5.855469-15.355469 0-21.214844l-22.160156-22.160156c15.378906-4.867187 26.554687-19.265625 26.554687-36.234375v-1c0-20.953125-17.046874-38-38-38zm8 38v1c0 4.410156-3.585937 8-8 8h-4v-17h4c4.414063 0 8 3.589844 8 8zm0 0" fill="#ffe046"/><path d="m403.125 181.027344h62.582031l-29.398437-49.339844c-14.859375-24.9375-36.992188-42.359375-63.183594-50.472656v69.8125c0 16.566406 13.429688 30 30 30zm0 0" fill="#e1f6fd"/><path d="m105.5 364c23.40625 0 42.5-19.09375 42.5-42.5s-19.09375-42.5-42.5-42.5-42.5 19.09375-42.5 42.5 19.09375 42.5 42.5 42.5zm0 0" fill="#e1f6fd" fill-rule="evenodd"/><path d="m105.5 379c-31.707031 0-57.5-25.792969-57.5-57.5s25.792969-57.5 57.5-57.5 57.5 25.796875 57.5 57.5-25.792969 57.5-57.5 57.5zm0-85c-15.164062 0-27.5 12.335938-27.5 27.5s12.335938 27.5 27.5 27.5 27.5-12.335938 27.5-27.5-12.335938-27.5-27.5-27.5zm0 0" fill="#1751a9"/><path d="m416.5 364c23.410156 0 42.5-19.09375 42.5-42.5s-19.089844-42.5-42.5-42.5c-23.40625 0-42.5 19.09375-42.5 42.5s19.09375 42.5 42.5 42.5zm0 0" fill="#beebfa" fill-rule="evenodd"/><path d="m416.5 379c-31.703125 0-57.5-25.792969-57.5-57.5s25.796875-57.5 57.5-57.5c31.707031 0 57.5 25.796875 57.5 57.5s-25.792969 57.5-57.5 57.5zm0-85c-15.164062 0-27.5 12.335938-27.5 27.5s12.335938 27.5 27.5 27.5 27.5-12.335938 27.5-27.5-12.335938-27.5-27.5-27.5zm0 0" fill="#001a48"/></svg>