<?xml version="1.0" encoding="utf-8"?>
<!-- Generator: Adobe Illustrator 16.0.0, SVG Export Plug-In . SVG Version: 6.00 Build 0)  -->
<!DOCTYPE svg PUBLIC "-//W3C//DTD SVG 1.1//EN" "http://www.w3.org/Graphics/SVG/1.1/DTD/svg11.dtd">
<svg version="1.1" id="Layer_1" xmlns="http://www.w3.org/2000/svg" xmlns:xlink="http://www.w3.org/1999/xlink" x="0px" y="0px"
	 width="60px" height="60px" viewBox="0 0 60 60" enable-background="new 0 0 60 60" xml:space="preserve">
<g>
	<g>
		<g>
			<path fill="#FFFFFF" d="M54.775,8.71H3.652C1.636,8.71,0,10.346,0,12.363v36.516c0,2.018,1.636,3.652,3.652,3.652h51.124
				c2.018,0,3.651-1.635,3.651-3.652V12.363C58.428,10.346,56.792,8.71,54.775,8.71z M3.652,22.751l14.015,9.528L3.652,46.299
				V22.751z M6.233,48.879l14.509-14.508l8.479,5.762l8.433-5.805l14.541,14.549L6.233,48.879L6.233,48.879z M54.775,46.299
				L40.702,32.225l14.073-9.681V46.299z M54.775,18.27L54.7,18.162L29.215,35.715L3.652,18.34v-5.978h51.124V18.27L54.775,18.27z"/>
		</g>
	</g>
</g>
</svg>
