<svg id="Layer_1" enable-background="new 0 0 256 256" height="512" viewBox="0 0 256 256" width="512" xmlns="http://www.w3.org/2000/svg"><path d="m223.765 202.071h-191.53c-8.635 0-15.635-7-15.635-15.635v-144.626c0-8.635 7-15.635 15.635-15.635h191.531c8.635 0 15.635 7 15.635 15.635v144.625c0 8.636-7 15.636-15.636 15.636z" fill="#4671c6"/><path d="m28.326 149.304v-105.538c0-3.238 2.625-5.863 5.863-5.863h187.622c3.238 0 5.863 2.625 5.863 5.863v105.537c0 3.238-2.625 5.863-5.863 5.863h-187.622c-3.238.001-5.863-2.624-5.863-5.862z" fill="#6bdddd"/><path d="m223.766 204.071h-191.532c-9.724 0-17.635-7.911-17.635-17.635v-144.626c0-9.724 7.911-17.635 17.635-17.635h191.531c9.724 0 17.635 7.911 17.635 17.635v144.625c0 9.725-7.911 17.636-17.634 17.636zm-191.532-175.896c-7.519 0-13.635 6.117-13.635 13.635v144.625c0 7.519 6.116 13.635 13.635 13.635h191.531c7.519 0 13.635-6.117 13.635-13.635v-144.625c0-7.519-6.116-13.635-13.635-13.635z" fill="#3762cc"/><path d="m221.812 157.167h-187.624c-4.335 0-7.862-3.527-7.862-7.863v-105.537c0-4.336 3.527-7.863 7.862-7.863h187.623c4.335 0 7.862 3.527 7.862 7.863v105.537c.001 4.336-3.527 7.863-7.861 7.863zm-187.624-117.264c-2.13 0-3.862 1.733-3.862 3.863v105.537c0 2.13 1.732 3.863 3.862 3.863h187.623c2.13 0 3.862-1.733 3.862-3.863v-105.536c0-2.13-1.732-3.863-3.862-3.863h-187.623z" fill="#3762cc"/><path d="m195.805 247.999h-135.61c-3.029 0-5.485-2.456-5.485-5.485v-2.712c0-3.029 2.456-5.485 5.485-5.485h135.611c3.029 0 5.485 2.456 5.485 5.485v2.712c-.001 3.03-2.457 5.485-5.486 5.485z" fill="#f9cfcf"/><path d="m82.136 202.072-7.882 32.246h107.492l-7.882-32.246z" fill="#a4c9ff"/><path d="m16.599 166.892v19.544c0 8.635 7 15.635 15.635 15.635h191.531c8.635 0 15.635-7 15.635-15.635v-19.544z" fill="#f9cfcf"/><path d="m128.501 194.253h-1.003c-5.099 0-9.271-4.172-9.271-9.271v-1.003c0-5.099 4.172-9.271 9.271-9.271h1.003c5.099 0 9.271 4.172 9.271 9.271v1.003c0 5.099-4.172 9.271-9.271 9.271z" fill="#f9a7a7"/><path d="m195.806 249.999h-135.612c-4.127 0-7.484-3.357-7.484-7.484v-2.712c0-4.127 3.357-7.484 7.484-7.484h135.611c4.127 0 7.484 3.357 7.484 7.484v2.712c.001 4.127-3.356 7.484-7.483 7.484zm-135.612-13.681c-1.921 0-3.484 1.563-3.484 3.484v2.712c0 1.921 1.563 3.484 3.484 3.484h135.611c1.921 0 3.484-1.563 3.484-3.484v-2.712c0-1.921-1.563-3.484-3.484-3.484z" fill="#3762cc"/><path d="m181.746 236.318h-107.492c-.614 0-1.194-.282-1.573-.765s-.516-1.113-.369-1.71l7.883-32.246c.219-.895 1.021-1.525 1.942-1.525h91.727c.922 0 1.724.63 1.942 1.525l7.883 32.246c.146.597.01 1.227-.369 1.71s-.96.765-1.574.765zm-104.944-4h102.396l-6.905-28.246h-88.586z" fill="#3762cc"/><path d="m191.837 155.167h-127.589v-139.166c0-4.418 3.582-8 8-8h111.589c4.418 0 8 3.582 8 8z" fill="#e0ebfc"/><path d="m116.99 127.867h-37c-2.209 0-4-1.791-4-4v-22.183c0-2.209 1.791-4 4-4h37c2.209 0 4 1.791 4 4v22.183c0 2.209-1.791 4-4 4z" fill="#4671c6"/><path d="m176.095 127.867h-37c-2.209 0-4-1.791-4-4v-22.183c0-2.209 1.791-4 4-4h37c2.209 0 4 1.791 4 4v22.183c0 2.209-1.791 4-4 4z" fill="#f9cfcf"/><g fill="#b9befc"><path d="m113.576 138.501h-30.173c-1.381 0-2.5-1.119-2.5-2.5s1.119-2.5 2.5-2.5h30.173c1.381 0 2.5 1.119 2.5 2.5s-1.119 2.5-2.5 2.5z"/><path d="m108.211 146.501h-19.442c-1.381 0-2.5-1.119-2.5-2.5s1.119-2.5 2.5-2.5h19.442c1.381 0 2.5 1.119 2.5 2.5s-1.119 2.5-2.5 2.5z"/><path d="m172.682 138.501h-30.173c-1.381 0-2.5-1.119-2.5-2.5s1.119-2.5 2.5-2.5h30.173c1.381 0 2.5 1.119 2.5 2.5s-1.12 2.5-2.5 2.5z"/><path d="m167.316 146.501h-19.442c-1.381 0-2.5-1.119-2.5-2.5s1.119-2.5 2.5-2.5h19.442c1.381 0 2.5 1.119 2.5 2.5s-1.119 2.5-2.5 2.5z"/></g><path d="m191.837 157.167h-127.589c-1.104 0-2-.896-2-2v-139.166c0-5.514 4.486-10 10-10h111.589c5.514 0 10 4.486 10 10v139.166c0 1.104-.896 2-2 2zm-125.589-4h123.589v-137.166c0-3.309-2.691-6-6-6h-111.589c-3.309 0-6 2.691-6 6z" fill="#3762cc"/><path d="m223.766 204.071h-191.532c-9.724 0-17.635-7.911-17.635-17.635v-19.544c0-1.104.896-2 2-2h222.801c1.104 0 2 .896 2 2v19.544c0 9.724-7.911 17.635-17.634 17.635zm-205.166-35.179v17.544c0 7.519 6.116 13.635 13.635 13.635h191.531c7.519 0 13.635-6.117 13.635-13.635v-17.544z" fill="#3762cc"/><path d="m176.095 88.668h-96.105c-2.209 0-4-1.791-4-4v-64.357c0-2.209 1.791-4 4-4h96.106c2.209 0 4 1.791 4 4v64.357c-.001 2.209-1.792 4-4.001 4z" fill="#f9a7a7"/><ellipse cx="135.496" cy="73.564" fill="#4671c6" rx="5.934" ry="5.803"/><ellipse cx="110.488" cy="73.564" fill="#4671c6" rx="5.934" ry="5.803"/><path d="m135.496 76.508c-1.66 0-3.01-1.321-3.01-2.944s1.35-2.944 3.01-2.944 3.01 1.321 3.01 2.944c0 1.624-1.35 2.944-3.01 2.944z" fill="#f9cfcf"/><path d="m110.488 76.508c-1.66 0-3.01-1.321-3.01-2.944s1.35-2.944 3.01-2.944 3.01 1.321 3.01 2.944c0 1.624-1.35 2.944-3.01 2.944z" fill="#f9cfcf"/><path d="m112.233 67.761v4.347c0 .785-.651 1.422-1.454 1.422h-.418c-.62 0-1.172-.385-1.374-.958l-1.697-4.811z" fill="#a4c9ff"/><path d="m137.241 67.761v4.347c0 .785-.651 1.422-1.454 1.422h-.418c-.62 0-1.172-.385-1.374-.958l-1.697-4.811z" fill="#a4c9ff"/><path d="m159.655 28.134h-10.661c-.696 0-1.261-.565-1.261-1.261v-3.09c0-.696.565-1.261 1.261-1.261h10.661c.696 0 1.261.565 1.261 1.261v3.09c0 .696-.565 1.261-1.261 1.261z" fill="#4671c6"/><path d="m147.733 23.783c0-.005.003-.009.003-.014h-1.579c-2.228 0-4.144 1.67-4.457 3.885l-.372 2.631h-40.56c-.795 0-1.552.336-2.075.921-.524.586-.763 1.363-.657 2.135l3.234 23.495c.261 1.894 1.931 3.323 3.885 3.323h5.785c.109.023.221.038.336.038.047 0 .094-.002.141-.006.06-.005.116-.021.173-.032h19.092c.058.011.113.027.173.032.047.004.094.006.141.006.115 0 .227-.015.336-.038h5.619 1.985c1.179 0 2.138 1.006 2.138 2.242s-.959 2.242-2.138 2.242h-35.816c-.88 0-1.594.698-1.594 1.559s.713 1.559 1.594 1.559h35.816c2.937 0 5.326-2.404 5.326-5.36 0-2.326-1.489-4.292-3.552-5.031.051-.174.1-.35.126-.534l3.412-24.784.61-3.971c.096-.681.655-1.195 1.299-1.195h1.579c0-.005-.003-.009-.003-.014zm-46.472 9.62h6.161l.918 10.26h-5.666zm3.895 23.638c-.365 0-.677-.267-.726-.621l-1.327-9.639h5.516l.918 10.26zm14.387 0h-6.807l-.918-10.26h7.725zm0-13.378h-8.004l-.918-10.26h8.922zm9.995 13.378h-6.807v-10.26h7.725zm1.196-13.378h-8.004v-10.26h8.921zm6.943 12.757c-.049.354-.361.621-.726.621h-4.214l.918-10.26h5.349zm1.757-12.757h-5.499l.918-10.26h5.994z" fill="#a4c9ff"/></svg>