<?xml version="1.0" encoding="iso-8859-1"?>
<!-- Generator: Adobe Illustrator 19.0.0, SVG Export Plug-In . SVG Version: 6.00 Build 0)  -->
<svg version="1.1" id="Capa_1" xmlns="http://www.w3.org/2000/svg" xmlns:xlink="http://www.w3.org/1999/xlink" x="0px" y="0px"
	 viewBox="0 0 512 512" style="enable-background:new 0 0 512 512;" xml:space="preserve">
<path style="fill:#CFD8DC;" d="M298.667,277.328c0.004-14.687,10.005-27.486,24.256-31.04l85.333-21.333
	c5.121-1.321,10.495-1.321,15.616,0l45.461,11.392V85.328c0-29.455-23.878-53.333-53.333-53.333H53.333
	C23.878,31.994,0,55.872,0,85.328v234.667c0,29.455,23.878,53.333,53.333,53.333h245.333V277.328z"/>
<rect y="95.994" style="fill:#455A64;" width="469.333" height="85.333"/>
<g>
	<path style="fill:#90A4AE;" d="M160,266.661H74.667c-5.891,0-10.667-4.776-10.667-10.667c0-5.891,4.776-10.667,10.667-10.667H160
		c5.891,0,10.667,4.776,10.667,10.667C170.667,261.885,165.891,266.661,160,266.661z"/>
	<path style="fill:#90A4AE;" d="M224,309.328H74.667c-5.891,0-10.667-4.776-10.667-10.667s4.776-10.667,10.667-10.667H224
		c5.891,0,10.667,4.776,10.667,10.667S229.891,309.328,224,309.328z"/>
</g>
<path style="fill:#2196F3;" d="M503.915,266.981l-85.333-21.333c-1.696-0.416-3.467-0.416-5.163,0l-85.333,21.333
	c-4.75,1.185-8.084,5.451-8.085,10.347v128c0,32.981,70.4,64.853,91.904,73.856c2.628,1.096,5.585,1.096,8.213,0
	C441.6,470.181,512,438.309,512,405.328v-128C511.999,272.432,508.665,268.166,503.915,266.981z"/>
<g>
	<polygon style="fill:#FAFAFA;" points="416,289.296 362.667,299.962 362.667,362.661 416,362.661 	"/>
	<polygon style="fill:#FAFAFA;" points="416,362.661 416,433.146 469.333,407.141 469.333,362.661 	"/>
</g>
<g>
</g>
<g>
</g>
<g>
</g>
<g>
</g>
<g>
</g>
<g>
</g>
<g>
</g>
<g>
</g>
<g>
</g>
<g>
</g>
<g>
</g>
<g>
</g>
<g>
</g>
<g>
</g>
<g>
</g>
</svg>
