<svg height="512pt" viewBox="0 -21 512 512" width="512pt" xmlns="http://www.w3.org/2000/svg"><path d="m168.796875 355.28125h174.402344v83.695312h-174.402344zm0 0" fill="#ccc"/><path d="m466.457031 375.003906h-420.921875c-20.949218 0-37.933594-16.984375-37.933594-37.9375v-291.527344c0-20.949218 16.984376-37.9375 37.933594-37.9375h420.921875c20.949219 0 37.9375 16.984376 37.9375 37.9375v291.53125c0 20.949219-16.988281 37.933594-37.9375 37.933594zm0 0" fill="#e6e6e6"/><path d="m237.800781 38.019531h229.164063c3.871094 0 7.015625 3.132813 7.015625 7.007813v252.214844c0 3.863281-3.144531 7.007812-7.015625 7.007812h-421.9375c-3.875 0-7.007813-3.144531-7.007813-7.007812v-252.214844c0-3.875 3.132813-7.007813 7.007813-7.007813zm0 0" fill="#61b4d8"/><path d="m363.117188 462.648438h-214.242188c-11.984375 0-21.699219-9.714844-21.699219-21.699219s9.714844-21.695313 21.699219-21.695313h214.242188c11.984374 0 21.699218 9.710938 21.699218 21.695313s-9.714844 21.699219-21.699218 21.699219zm0 0" fill="#e6e6e6"/><path d="m466.457031 0h-420.925781c-25.105469 0-45.53125 20.429688-45.53125 45.542969v291.523437c0 25.113282 20.425781 45.542969 45.53125 45.542969h115.660156v29.039063h-12.316406c-16.15625 0-29.300781 13.144531-29.300781 29.300781s13.144531 29.300781 29.300781 29.300781h214.242188c16.160156 0 29.304687-13.144531 29.304687-29.300781s-13.144531-29.300781-29.304687-29.300781h-12.316407v-29.039063h12.507813c4.199218 0 7.601562-3.402344 7.601562-7.601563 0-4.199218-3.402344-7.605468-7.601562-7.605468h-317.777344c-16.71875 0-30.324219-13.605469-30.324219-30.335938v-291.523437c0-16.726563 13.605469-30.335938 30.324219-30.335938h420.925781c16.726563 0 30.335938 13.609375 30.335938 30.335938v291.523437c0 16.730469-13.609375 30.335938-30.335938 30.335938h-72.730469c-4.199218 0-7.605468 3.40625-7.605468 7.605468 0 4.199219 3.40625 7.601563 7.605468 7.601563h72.730469c25.113281 0 45.542969-20.429687 45.542969-45.542969v-291.523437c0-25.113281-20.429688-45.542969-45.542969-45.542969zm-89.246093 440.949219c0 7.773437-6.320313 14.09375-14.09375 14.09375h-214.242188c-7.773438 0-14.09375-6.320313-14.09375-14.09375 0-7.769531 6.320312-14.09375 14.09375-14.09375h214.242188c7.773437 0 14.09375 6.324219 14.09375 14.09375zm-41.617188-29.300781h-159.195312v-29.039063h159.195312zm0 0"/><path d="m38.019531 74.703125c-4.199219 0-7.605469 3.402344-7.605469 7.601563v214.941406c0 8.054687 6.554688 14.609375 14.613282 14.609375h421.9375c8.0625 0 14.621094-6.554688 14.621094-14.609375v-252.21875c0-8.058594-6.558594-14.613282-14.621094-14.613282h-421.9375c-8.058594 0-14.613282 6.554688-14.613282 14.613282v6.859375c0 4.199219 3.40625 7.605469 7.605469 7.605469s7.605469-3.40625 7.605469-7.605469v-6.261719h420.75v251.019531h-420.75v-214.339843c0-4.199219-3.40625-7.601563-7.605469-7.601563zm0 0"/><path d="m326.171875 196.996094c3.664063 0 6.808594-2.617188 7.476563-6.21875l16.886718-91.152344c.414063-2.222656-.183594-4.511719-1.628906-6.246094-1.445312-1.738281-3.585938-2.742187-5.847656-2.742187h-142.984375l-4.769531-25.742188c-.667969-3.605469-3.8125-6.21875-7.476563-6.21875h-24.855469c-4.199218 0-7.605468 3.402344-7.605468 7.601563 0 4.199218 3.40625 7.605468 7.605468 7.605468h18.53125l27.859375 150.367188c.667969 3.601562 3.808594 6.21875 7.476563 6.21875h102.722656c4.199219 0 7.601562-3.40625 7.601562-7.605469s-3.402343-7.601562-7.601562-7.601562h-96.398438l-3.382812-18.265625zm-73.539063-15.207032-2.226562-30.367187h35.996094l-2.226563 30.367187zm46.792969 0 2.222657-30.367187h23.824218l-5.625 30.367187zm28.863281-45.578124h-25.523437l2.222656-30.367188h28.929688zm-38.546874-30.367188-2.226563 30.367188h-38.222656l-2.222657-30.367188zm-57.921876 0 2.222657 30.367188h-25.523438l-5.628906-30.367188zm-20.484374 45.574219h23.820312l2.226562 30.367187h-20.421874zm0 0"/><path d="m205.464844 259.5625c0 11.628906 9.464844 21.089844 21.09375 21.089844 11.632812 0 21.09375-9.460938 21.09375-21.089844s-9.460938-21.09375-21.09375-21.09375c-11.628906 0-21.09375 9.460938-21.09375 21.09375zm26.980468 0c0 3.246094-2.640624 5.882812-5.886718 5.882812-3.242188 0-5.882813-2.640624-5.882813-5.882812 0-3.246094 2.636719-5.886719 5.882813-5.886719s5.886718 2.640625 5.886718 5.886719zm0 0"/><path d="m305.871094 238.46875c-11.628906 0-21.089844 9.460938-21.089844 21.09375 0 11.628906 9.460938 21.089844 21.089844 21.089844s21.09375-9.460938 21.09375-21.089844-9.460938-21.09375-21.09375-21.09375zm0 26.976562c-3.246094 0-5.882813-2.640624-5.882813-5.882812 0-3.246094 2.640625-5.886719 5.882813-5.886719 3.246094 0 5.886718 2.640625 5.886718 5.886719s-2.640624 5.882812-5.886718 5.882812zm0 0"/></svg>